<?xml version="1.0" standalone="no"?><!DOCTYPE svg PUBLIC "-//W3C//DTD SVG 1.1//EN" "http://www.w3.org/Graphics/SVG/1.1/DTD/svg11.dtd"><svg t="1550158582781" class="icon" style="" viewBox="0 0 1024 1024" version="1.1" xmlns="http://www.w3.org/2000/svg" p-id="4087" xmlns:xlink="http://www.w3.org/1999/xlink" width="200" height="200"><defs><style type="text/css"></style></defs><path d="M771.413333 824.466286c-75.824762 75.873524-177.493333 117.564952-286.427428 117.564952-108.934095 0-210.602667-41.691429-286.427429-117.51619-75.873524-75.922286-117.613714-177.493333-117.613714-286.476191 0-108.885333 41.74019-210.602667 117.613714-286.378667A399.213714 399.213714 0 0 1 412.038095 140.726857V610.791619h470.211048a398.531048 398.531048 0 0 1-110.83581 213.674667z m118.393905-295.594667H493.958095V134.095238h0.146286V56.905143h-9.118476a474.160762 474.160762 0 0 0-186.855619 37.936762 482.791619 482.791619 0 0 0-152.917334 103.375238A483.132952 483.132952 0 0 0 41.837714 351.085714a472.795429 472.795429 0 0 0-38.034285 186.904381c0 64.707048 12.678095 127.561143 37.888 186.855619A482.840381 482.840381 0 0 0 145.066667 877.714286a482.937905 482.937905 0 0 0 152.966095 103.375238 474.989714 474.989714 0 0 0 186.855619 38.034286 474.599619 474.599619 0 0 0 186.855619-38.034286 482.937905 482.937905 0 0 0 152.868571-103.375238 482.840381 482.840381 0 0 0 103.375239-152.868572 474.989714 474.989714 0 0 0 38.034285-186.855619v-9.069714h-76.214857v-0.097524z" fill="#BABCC4" p-id="4088"></path><path d="M641.852952 88.941714a371.273143 371.273143 0 0 1 190.025143 102.058667 372.736 372.736 0 0 1 102.009905 190.025143h-292.035048v-292.08381z m248.929524 43.154286C805.595429 46.957714 691.346286 0 569.051429 0h-9.118477v462.994286H1022.878476v-9.118476c0-122.197333-46.811429-236.495238-132.096-321.731048z" fill="#BABCC4" p-id="4089"></path></svg>