<?xml version="1.0" standalone="no"?><!DOCTYPE svg PUBLIC "-//W3C//DTD SVG 1.1//EN" "http://www.w3.org/Graphics/SVG/1.1/DTD/svg11.dtd"><svg t="1548495984461" class="icon" style="" viewBox="0 0 1024 1024" version="1.1" xmlns="http://www.w3.org/2000/svg" p-id="3384" xmlns:xlink="http://www.w3.org/1999/xlink" width="200" height="200"><defs><style type="text/css"></style></defs><path d="M513 960.8c-60.4 0-119-11.8-174.2-35.2-53.3-22.5-101.1-54.8-142.2-95.9-41.1-41.1-73.4-88.9-95.9-142.2-23.3-55.2-35.2-113.8-35.2-174.2s11.8-119 35.2-174.2c22.5-53.3 54.8-101.1 95.9-142.2 41.1-41.1 88.9-73.4 142.2-95.9C394 77.6 452.6 65.8 513 65.8S632 77.6 687.2 101c53.3 22.5 101.1 54.8 142.2 95.9 41.1 41.1 73.4 88.9 95.9 142.2 23.3 55.2 35.2 113.8 35.2 174.2s-11.8 119-35.2 174.2c-22.5 53.3-54.8 101.1-95.9 142.2-41.1 41.1-88.9 73.4-142.2 95.9-55.2 23.3-113.8 35.2-174.2 35.2z m0-839c-52.9 0-104.1 10.3-152.4 30.8-46.6 19.7-88.5 47.9-124.5 83.9s-64.2 77.8-83.9 124.5c-20.4 48.2-30.8 99.5-30.8 152.4s10.3 104.1 30.8 152.4c19.7 46.6 47.9 88.5 83.9 124.5 36 36 77.8 64.2 124.5 83.9C408.8 894.6 460.1 905 513 905s104.1-10.3 152.4-30.8c46.6-19.7 88.5-47.9 124.5-83.9 36-36 64.2-77.8 83.9-124.5 20.4-48.2 30.8-99.5 30.8-152.4S894.3 409.3 873.8 361c-19.7-46.6-47.9-88.5-83.9-124.5-36-36-77.8-64.2-124.5-83.9-48.3-20.5-99.5-30.8-152.4-30.8z" fill="#9A9999" p-id="3385"></path><path d="M552.6 514.2l140-140c10.9-10.9 10.9-28.7 0-39.6-10.9-10.9-28.7-10.9-39.6 0l-140 140-140-140c-10.9-10.9-28.7-10.9-39.6 0-10.9 10.9-10.9 28.7 0 39.6l140 140-140 140c-10.9 10.9-10.9 28.7 0 39.6 10.9 10.9 28.7 10.9 39.6 0l140-140 140 140c10.9 10.9 28.7 10.9 39.6 0s10.9-28.7 0-39.6l-140-140z" fill="#9A9999" p-id="3386"></path></svg>