<?xml version="1.0" standalone="no"?><!DOCTYPE svg PUBLIC "-//W3C//DTD SVG 1.1//EN" "http://www.w3.org/Graphics/SVG/1.1/DTD/svg11.dtd"><svg t="1550039171712" class="icon" style="" viewBox="0 0 1024 1024" version="1.1" xmlns="http://www.w3.org/2000/svg" p-id="6006" xmlns:xlink="http://www.w3.org/1999/xlink" width="200" height="200"><defs><style type="text/css"></style></defs><path d="M750.809479 195.285708c28.089755 19.976984 53.06252 42.606377 74.910107 67.889203 21.848611 25.282826 40.576137 52.594869 56.183604 81.935104 15.607466 29.339212 27.466562 60.397578 35.582403 93.169983 8.115841 32.773428 12.173251 66.016553 12.173251 99.727329 0 58.055231-11.081383 112.523773-33.243125 163.40051-22.160719 50.876738-52.125171 95.200222-89.893356 132.968407-37.768185 37.768185-82.09167 67.731614-132.967384 89.893356-50.878784 22.160719-105.344257 33.242102-163.401534 33.242102-57.432037 0-111.587448-11.081383-162.464185-33.242102-50.877761-22.160719-95.356788-52.125171-133.436058-89.893356-38.080294-37.768185-68.044746-82.092693-89.89438-132.968407-21.848611-50.876738-32.772404-105.344257-32.772404-163.40051 0-33.086559 3.900843-65.548902 11.704576-97.384981 7.803733-31.838126 18.885116-62.114686 33.242102-90.830705 14.358009-28.716019 32.150234-55.559387 53.374628-80.529081 21.224394-24.970718 44.947701-47.444569 71.16583-67.420529 13.733792-9.988492 28.560476-13.733792 44.478004-11.236925 15.918551 2.496867 28.872584 10.3006 38.861076 23.409153 9.988492 13.110599 13.733792 27.779693 11.235902 44.011376-2.495844 16.23066-10.299577 29.340235-23.409153 39.328727-39.328727 28.716019-69.449745 63.987337-90.362031 105.811908-20.913309 41.825594-31.369452 86.773296-31.369452 134.842081 0 41.202401 7.80271 80.060407 23.410176 116.580159 15.606443 36.519752 36.987403 68.357877 64.142879 95.512331 27.154453 27.155477 58.991556 48.693002 95.512331 64.611553 36.519752 15.920598 75.379804 23.87885 116.581182 23.87885 41.201377 0 80.060407-7.958252 116.582205-23.87885 36.519752-15.918551 68.355831-37.456077 95.512331-64.611553 27.154453-27.154453 48.691979-58.992579 64.61053-95.512331s23.877827-75.377758 23.877827-116.580159c0-48.693002-11.235902-94.732571-33.709753-138.119731-22.472827-43.385113-53.999868-79.124082-94.576005-107.216907-13.733792-9.364275-22.0062-22.160719-24.814152-38.392402-2.808976-16.23066 0.468674-31.213909 9.830903-44.946678 9.363252-13.109576 22.161742-21.068851 38.394449-23.877827 16.229636-2.809999 31.211862 0.467651 44.945655 9.830903L750.809479 195.285708zM510.154467 540.815279c-16.23066 0-30.121018-5.774517-41.670052-17.321504-11.549034-11.550057-17.323551-25.440415-17.323551-41.672098L451.160865 125.993552c0-16.23066 5.77554-30.27656 17.323551-42.137703 11.549034-11.861142 25.438369-17.791202 41.670052-17.791202 16.854876 0 31.058366 5.930059 42.605354 17.791202 11.550057 11.861142 17.324574 25.907043 17.324574 42.137703l0 355.829148c0 16.231683-5.774517 30.122041-17.324574 41.672098C541.212834 535.041786 527.009344 540.815279 510.154467 540.815279L510.154467 540.815279z" p-id="6007" fill="#BABCC4"></path></svg>