<?xml version="1.0" standalone="no"?><!DOCTYPE svg PUBLIC "-//W3C//DTD SVG 1.1//EN" "http://www.w3.org/Graphics/SVG/1.1/DTD/svg11.dtd"><svg t="1550159013526" class="icon" style="" viewBox="0 0 1024 1024" version="1.1" xmlns="http://www.w3.org/2000/svg" p-id="10127" xmlns:xlink="http://www.w3.org/1999/xlink" width="200" height="200"><defs><style type="text/css"></style></defs><path d="M510.844518 169.430099c-188.890842 0-343.360494 154.469652-343.360494 343.360494s154.469652 343.360494 343.360494 343.360494S854.205012 701.681435 854.205012 512.790593 699.73536 169.430099 510.844518 169.430099z m8.514076 103.020311c130.8735 0 130.8735 98.763274 130.8735 154.469652 0 55.828008-51.449341 158.848319-130.8735 160.916023-77.234826 0-130.8735-103.020311-130.873501-160.916023 0-55.828008 0-154.469652 130.873501-154.469652z m-8.514076 564.361563c-98.763274 0-188.890842-45.002969-248.975888-115.913054 8.635705-21.406818 19.339114-45.124599 34.299561-57.895712 32.231857-25.785485 128.805796-68.720751 128.805796-68.720751l60.085046 115.913054 10.703409-27.853189-17.14978-34.299561 34.29956-34.29956 34.299561 34.29956-15.082076 36.488895 8.635705 27.853189 62.274379-113.72372s96.57394 42.935265 128.805796 68.72075c15.082076 10.703409 25.785485 30.042523 32.231857 47.192303C706.181732 789.61967 613.86483 836.811973 510.844518 836.811973z m0 0" p-id="10128" fill="#BABCC4"></path></svg>