<?xml version="1.0" standalone="no"?><!DOCTYPE svg PUBLIC "-//W3C//DTD SVG 1.1//EN" "http://www.w3.org/Graphics/SVG/1.1/DTD/svg11.dtd"><svg t="1549013433684" class="icon" style="" viewBox="0 0 1024 1024" version="1.1" xmlns="http://www.w3.org/2000/svg" p-id="2487" xmlns:xlink="http://www.w3.org/1999/xlink" width="200" height="200"><defs><style type="text/css"></style></defs><path d="M739.552 608.768v-5.728a45.504 45.504 0 0 1 91.008 0v5.728a180.256 180.256 0 0 1 46.976 19.488l4.096-4.096a45.504 45.504 0 1 1 64.352 64.384l-4.096 4.064c8.544 14.464 15.2 30.272 19.488 46.976h5.728a45.504 45.504 0 0 1 0 91.008h-5.728a180.256 180.256 0 0 1-19.488 46.976l4.096 4.096a45.504 45.504 0 1 1-64.384 64.352l-4.064-4.096a177.696 177.696 0 0 1-45.696 19.2l-1.248 0.288v5.728a45.504 45.504 0 0 1-91.008 0v-5.728a180.352 180.352 0 0 1-47.776-19.936l0.832 0.448-4.096 4.096a45.504 45.504 0 0 1-64.32-64.352l4.096-4.096a177.696 177.696 0 0 1-19.2-45.696l-0.288-1.248h-5.728a45.504 45.504 0 0 1 0-91.008h5.728a180.256 180.256 0 0 1 19.488-46.976l-4.096-4.096a45.504 45.504 0 1 1 64.384-64.352l4.064 4.096a177.696 177.696 0 0 1 45.696-19.2l1.248-0.288z m-259.872 267.328H56.896a45.504 45.504 0 0 1-45.504-45.504v-45.504-0.032c0-201.088 163.008-364.096 364.096-364.096 93.408 0 178.592 35.168 243.04 92.992l-0.352-0.288c-91.616 56.992-151.68 157.12-151.68 271.264v0.16c0 31.616 4.608 62.176 13.184 91.008z m-104.224-455.104c-100.576 0-182.048-91.712-182.048-204.8s81.472-204.8 182.048-204.8 182.048 91.712 182.048 204.8-81.472 204.8-182.048 204.8z m409.6 455.104a91.008 91.008 0 1 0 0-182.016 91.008 91.008 0 1 0 0 182.016z" fill="" p-id="2488"></path></svg>