<?xml version="1.0" standalone="no"?><!DOCTYPE svg PUBLIC "-//W3C//DTD SVG 1.1//EN" "http://www.w3.org/Graphics/SVG/1.1/DTD/svg11.dtd"><svg t="1549177337295" class="icon" style="" viewBox="0 0 1024 1024" version="1.1" xmlns="http://www.w3.org/2000/svg" p-id="1094" xmlns:xlink="http://www.w3.org/1999/xlink" width="200" height="200"><defs><style type="text/css"></style></defs><path d="M143.248541 426.443415c-5.469572 5.469572-14.541181 18.715247-14.541181 31.422663 0 8.300037 3.391237 20.067035 14.326287 31.006178l270.0239 291.62487c5.469572 5.469572 17.599843 15.277962 33.701566 5.999644 10.505261-6.053879 10.044774-25.914206 10.044774-31.383778L456.803887 594.57467c180.453908 0 349.971743 131.241067 382.78201 300.755832 27.341718-27.339672 54.682413-103.896278 54.682413-164.048263 0-224.199225-213.265198-410.119635-437.464423-410.119635L456.803887 162.579819c0-10.93505 0.106424-21.11797-12.56313-29.986965-13.422707-9.397021-29.252231-4.396123-40.191374 6.538927L143.248541 426.443415z" p-id="1095" fill="#BABCC4"></path></svg>