<?xml version="1.0" standalone="no"?><!DOCTYPE svg PUBLIC "-//W3C//DTD SVG 1.1//EN" "http://www.w3.org/Graphics/SVG/1.1/DTD/svg11.dtd"><svg t="1549028631648" class="icon" style="" viewBox="0 0 1033 1024" version="1.1" xmlns="http://www.w3.org/2000/svg" p-id="2464" xmlns:xlink="http://www.w3.org/1999/xlink" width="201.7578125" height="200"><defs><style type="text/css"></style></defs><path d="M1033.24416 652.8v32c0 12.8-6.4 25.6-12.8 38.4-6.4 12.8-12.8 25.6-19.2 32-6.4 12.8-12.8 19.2-25.6 19.2-6.4 6.4-19.2 6.4-25.6 6.4-6.4 0-12.8 0-19.2-6.4-6.4 0-19.2-6.4-25.6-6.4h-32c-12.8 0-25.6 6.4-32 6.4-12.8 6.4-19.2 12.8-32 19.2-19.2 19.2-25.6 38.4-32 64 0 25.6 0 44.8 12.8 64 6.4 12.8 6.4 32-6.4 44.8l-19.2 19.2c-6.4 6.4-19.2 12.8-32 19.2-12.8 6.4-25.6 6.4-38.4 12.8-12.8 0-25.6 6.4-32 6.4-6.4 0-12.8 0-19.2-6.4-6.4-6.4-12.8-12.8-12.8-19.2-6.4-25.6-19.2-44.8-38.4-57.6-19.2-19.2-44.8-25.6-70.4-25.6-25.6 0-44.8 6.4-70.4 25.6s-32 38.4-44.8 57.6c-6.4 6.4-6.4 12.8-19.2 19.2 0 6.4-6.4 6.4-19.2 6.4-12.8 0-19.2 0-32-6.4s-25.6-6.4-38.4-12.8c-12.8-6.4-25.6-12.8-32-19.2-12.8-6.4-19.2-12.8-25.6-19.2-6.4-6.4-6.4-12.8-6.4-19.2 0-6.4 0-19.2 6.4-32 6.4-19.2 12.8-38.4 6.4-57.6 0-19.2-12.8-38.4-25.6-57.6-12.8-12.8-25.6-19.2-38.4-19.2-12.8-6.4-25.6-6.4-44.8-6.4-12.8 0-32 6.4-44.8 6.4H60.44416c-6.4 0-12.8-12.8-25.6-19.2l-19.2-38.4c-6.4-12.8-12.8-25.6-12.8-38.4 0-12.8-6.4-25.6 0-32 0-19.2 6.4-25.6 19.2-32 32-6.4 51.2-25.6 70.4-44.8 19.2-19.2 25.6-44.8 25.6-64 0-25.6-6.4-51.2-25.6-64-19.2-25.6-38.4-38.4-57.6-44.8L15.64416 384C9.24416 377.6 9.24416 364.8 9.24416 358.4c0-6.4 0-19.2 6.4-32 0-12.8 6.4-25.6 12.8-32 6.4-12.8 12.8-19.2 19.2-32 0-6.4 6.4-19.2 12.8-19.2 6.4-6.4 12.8-6.4 19.2-6.4 6.4 0 12.8 0 19.2 6.4 19.2 6.4 44.8 12.8 64 6.4 25.6-6.4 44.8-12.8 64-32 6.4-6.4 12.8-19.2 19.2-32 6.4-12.8 6.4-25.6 6.4-38.4v-32-19.2c0-6.4 0-6.4-6.4-12.8v-12.8c6.4-19.2 19.2-25.6 25.6-38.4l38.4-19.2c12.8-6.4 25.6-6.4 38.4-12.8h32c6.4 0 12.8 0 19.2 6.4 6.4 6.4 6.4 12.8 12.8 19.2 6.4 25.6 19.2 38.4 38.4 57.6 19.2 12.8 38.4 25.6 64 25.6s51.2-6.4 70.4-19.2c19.2-12.8 32-32 44.8-57.6 0-6.4 6.4-12.8 12.8-19.2 6.4-12.8 12.8-12.8 19.2-12.8 12.8 0 19.2 0 32 6.4 12.8 0 25.6 6.4 38.4 12.8 12.8 6.4 25.6 12.8 32 19.2 6.4 6.4 12.8 12.8 19.2 25.6 6.4 6.4 6.4 12.8 6.4 19.2 0 6.4 0 12.8-6.4 12.8-6.4 19.2-12.8 44.8-6.4 64 6.4 25.6 12.8 44.8 32 64 19.2 19.2 38.4 25.6 64 32s51.2 0 70.4-12.8c6.4-6.4 12.8-6.4 19.2-6.4 6.4 0 12.8 6.4 19.2 12.8 12.8 12.8 19.2 25.6 32 44.8 6.4 19.2 12.8 44.8 19.2 64 0 12.8 0 19.2-6.4 32s-12.8 12.8-19.2 12.8c-25.6 6.4-44.8 19.2-57.6 44.8-19.2 19.2-25.6 44.8-25.6 70.4 0 25.6 6.4 44.8 19.2 64s32 32 51.2 38.4c6.4 0 6.4 6.4 12.8 6.4 12.8 6.4 19.2 12.8 25.6 25.6z m-512 96c32 0 64-6.4 96-19.2 32-12.8 57.6-32 76.8-51.2 19.2-19.2 38.4-44.8 51.2-76.8 6.4-25.6 12.8-57.6 12.8-89.6 0-32-6.4-64-19.2-96-12.8-32-32-51.2-51.2-76.8-19.2-19.2-44.8-38.4-76.8-51.2-25.6-12.8-57.6-19.2-89.6-19.2-32 0-64 6.4-96 19.2-25.6 12.8-51.2 32-76.8 51.2-19.2 25.6-38.4 51.2-51.2 76.8-6.4 32-12.8 64-12.8 96s6.4 64 19.2 96c12.8 32 32 57.6 51.2 76.8 19.2 19.2 44.8 38.4 76.8 51.2 25.6 6.4 57.6 12.8 89.6 12.8z" fill="#BABCC4" p-id="2465"></path></svg>