<?xml version="1.0" standalone="no"?><!DOCTYPE svg PUBLIC "-//W3C//DTD SVG 1.1//EN" "http://www.w3.org/Graphics/SVG/1.1/DTD/svg11.dtd"><svg t="1550244892714" class="icon" style="" viewBox="0 0 1025 1024" version="1.1" xmlns="http://www.w3.org/2000/svg" p-id="4386" xmlns:xlink="http://www.w3.org/1999/xlink" width="200.1953125" height="200"><defs><style type="text/css"></style></defs><path d="M585.511209 1023.989518h-147.032899a17.469255 17.469255 0 0 1-17.178102-14.557712l-22.127723-133.34865a17.469255 17.469255 0 0 0-11.355016-13.393095 370.930522 370.930522 0 0 1-35.229665-14.557713 17.469255 17.469255 0 0 0-17.76041 0l-110.347463 78.611649a17.469255 17.469255 0 0 1-22.418877-1.746926l-104.233224-102.777452a17.469255 17.469255 0 0 1-1.746926-22.418878L174.692554 689.453278a17.469255 17.469255 0 0 0 0-17.760409 369.474751 369.474751 0 0 1-14.557713-35.229665 17.469255 17.469255 0 0 0-13.393096-11.355016L14.557713 602.68931a17.469255 17.469255 0 0 1-14.557713-17.178101v-147.032899a17.469255 17.469255 0 0 1 14.557713-17.178102l133.639803-22.418877a17.469255 17.469255 0 0 0 13.393096-11.355016 372.968602 372.968602 0 0 1 14.557713-35.229665 17.469255 17.469255 0 0 0 0-17.76041L96.080904 224.479931a17.469255 17.469255 0 0 1 1.746926-22.418877l104.233224-104.233224a17.469255 17.469255 0 0 1 22.418877-1.746926L334.53624 174.692554a17.469255 17.469255 0 0 0 17.76041 0 371.512831 371.512831 0 0 1 35.229665-14.557713 17.469255 17.469255 0 0 0 11.355016-13.393096L421.300208 14.557713a17.469255 17.469255 0 0 1 17.178102-14.557713h147.032899a17.469255 17.469255 0 0 1 17.178101 14.557713l22.127723 133.348649a17.469255 17.469255 0 0 0 11.355016 13.393096 371.512831 371.512831 0 0 1 35.229665 14.557713 17.469255 17.469255 0 0 0 17.76041 0l110.347463-78.611649a17.469255 17.469255 0 0 1 22.418878 1.746925l103.942069 103.942069a17.469255 17.469255 0 0 1 1.746926 22.418878l-78.611649 110.347463a17.469255 17.469255 0 0 0 0 17.76041 368.601288 368.601288 0 0 1 14.557712 35.229665 17.469255 17.469255 0 0 0 13.393096 11.64617l133.639804 22.418878a17.469255 17.469255 0 0 1 14.557712 17.178101v147.032899a17.469255 17.469255 0 0 1-14.557712 17.178101l-133.639804 22.127724a17.469255 17.469255 0 0 0-13.393096 11.355016 370.639368 370.639368 0 0 1-14.557712 35.229665 17.469255 17.469255 0 0 0 0 17.760409l78.611649 110.347463a17.469255 17.469255 0 0 1-1.746926 22.418878l-103.942069 103.942069a17.469255 17.469255 0 0 1-22.418878 1.746926l-110.347463-78.611649a17.469255 17.469255 0 0 0-17.76041 0 369.765905 369.765905 0 0 1-35.229665 14.557713 17.469255 17.469255 0 0 0-11.355016 13.393095l-22.127723 133.639804a17.469255 17.469255 0 0 1-17.178101 11.937324z m-110.638617-43.090829h74.244335a17.469255 17.469255 0 0 0 17.178101-14.557713l20.671952-123.449405a17.469255 17.469255 0 0 1 12.519633-13.975404 340.65048 340.65048 0 0 0 73.662027-29.115426 17.469255 17.469255 0 0 1 18.633872 0l101.90399 72.788564a17.469255 17.469255 0 0 0 22.418878-1.746925l52.407766-52.407766a17.469255 17.469255 0 0 0 1.746925-22.418878l-72.788564-101.90399a17.469255 17.469255 0 0 1 0-18.633872v-2.329234a328.422001 328.422001 0 0 0 29.115426-70.45933v-2.620388a17.469255 17.469255 0 0 1 13.975404-12.519633l123.449405-20.671953a17.469255 17.469255 0 0 0 14.557713-17.178101v-74.826643a17.469255 17.469255 0 0 0-14.557713-17.178102L842.891571 436.731384a17.469255 17.469255 0 0 1-13.975404-12.519633v-2.620388a324.92815 324.92815 0 0 0-29.115426-70.45933v-2.329234a17.469255 17.469255 0 0 1 0-18.633873l72.788564-101.903989a17.469255 17.469255 0 0 0-1.746925-22.418878l-52.407766-52.407766a17.469255 17.469255 0 0 0-22.418878-1.746926l-101.90399 72.788564a17.469255 17.469255 0 0 1-18.633872 0h-2.329234a327.548538 327.548538 0 0 0-70.45933-29.115425h-2.620388a17.469255 17.469255 0 0 1-12.519633-13.975404L566.295028 58.230851a17.469255 17.469255 0 0 0-17.178101-14.557713h-74.244335a17.469255 17.469255 0 0 0-17.178102 14.557713L436.731384 181.097947a17.469255 17.469255 0 0 1-12.519633 13.975405A345.891256 345.891256 0 0 0 349.385107 225.935703a17.469255 17.469255 0 0 1-18.633872 0l-101.90399-72.788564a17.469255 17.469255 0 0 0-22.418877 1.746925L154.311756 206.719522a17.469255 17.469255 0 0 0-1.746926 22.418877l72.788564 101.90399a17.469255 17.469255 0 0 1 0 18.633872v2.329235a327.548538 327.548538 0 0 0-29.115425 70.459329v2.620389a17.469255 17.469255 0 0 1-13.975405 12.519633L58.230851 457.69449a17.469255 17.469255 0 0 0-14.557713 17.178102v74.244335a17.469255 17.469255 0 0 0 14.557713 17.178101l123.449405 20.671952a17.469255 17.469255 0 0 1 13.975404 12.519633v2.620388a325.219304 325.219304 0 0 0 29.115426 70.45933v2.329234a17.469255 17.469255 0 0 1 0 18.633873l-72.788564 101.903989a17.469255 17.469255 0 0 0 1.746925 22.418878l52.407766 52.407766a17.469255 17.469255 0 0 0 22.418878 1.746926l101.90399-72.788564a17.469255 17.469255 0 0 1 18.633872 0h2.329234a326.675075 326.675075 0 0 0 70.45933 29.115425h2.620388A17.469255 17.469255 0 0 1 436.731384 844.347342l20.671952 123.449405a17.469255 17.469255 0 0 0 17.469256 13.101942z" p-id="4387" fill="#555555"></path><path d="M512.140336 697.023289a184.882953 184.882953 0 1 1 184.882953-184.882953 185.174107 185.174107 0 0 1-184.882953 184.882953z m0-343.270868A158.387915 158.387915 0 1 0 669.654789 512.140336a158.67907 158.67907 0 0 0-157.514453-158.679069z" p-id="4388" fill="#555555"></path></svg>